<svg width="511" height="300" viewBox="0 0 511 300" fill="none" xmlns="http://www.w3.org/2000/svg">
<path d="M184.55 284.158C179.081 292.374 144.89 299.61 126.813 299.61C124.986 299.623 123.159 299.524 121.344 299.316C117.615 298.849 115.531 297.82 114.941 296.15C114.274 292.98 114.199 289.711 114.721 286.511C116.511 273.749 114.209 260.749 108.148 249.377C104.174 242.019 74.1285 190.021 70.7195 184.135C63.6795 171.871 57.2536 160.048 57.7437 155.413C57.9902 152.961 59.6334 146.092 61.5462 138.097C63.5325 129.684 65.8143 120.143 66.868 114.159C68.1764 104.822 68.996 95.4225 69.3213 86.0014C69.5174 82.297 69.6399 79.3536 69.8114 77.9554C70.7767 72.8337 73.2531 68.1177 76.9249 64.4173C79.7213 61.5964 114.5 14.1111 118.621 8.39586C119.298 7.4238 119.881 6.38912 120.363 5.30542C121.761 2.43552 123.184 -0.50652 129.315 0.645249C130.752 0.932511 132.102 1.54651 133.264 2.4396C134.425 3.3327 135.366 4.48175 136.011 5.79689C138.088 10.2842 138.396 15.3909 136.87 20.096C142.755 17.2261 148.03 17.8387 152.224 21.8863C153.037 22.6786 153.663 23.6425 154.058 24.7072C154.453 25.7718 154.605 26.9113 154.505 28.0427C154.235 33.7089 149.379 40.1104 146.19 42.7597C140.475 47.0918 135.419 52.2312 131.179 58.0145C130.32 59.4617 129.046 61.2779 127.574 63.4112C123.947 68.5152 120.67 73.8575 117.762 79.4026C117.321 80.2617 116.929 81.1194 116.56 81.8559L116.315 82.395C115.923 83.3276 115.58 84.2098 115.31 85.0444C115.31 85.2649 115.139 85.4855 115.065 85.706C114.691 86.8918 114.468 88.1198 114.402 89.3615C114.378 89.8026 114.378 90.245 114.402 90.6861C114.41 92.3362 114.6 93.9808 114.966 95.5913C115.558 98.483 116.387 101.322 117.444 104.077C117.615 104.469 117.762 104.863 117.958 105.279C118.597 106.898 119.308 108.541 120.02 110.185C121.516 113.667 123.061 117.273 124.263 120.854C128.652 134.05 149.01 157.18 158.797 168.266C170.104 181.118 175.795 193.798 185.287 227.131C185.63 228.333 186.046 229.583 186.464 231.03C190.314 244.129 196.838 265.762 184.55 284.158Z" fill="#373737"/>
<path d="M327.325 284.158C332.793 292.374 366.984 299.61 385.061 299.61C386.89 299.623 388.716 299.524 390.532 299.316C394.259 298.849 396.345 297.82 396.933 296.15C397.6 292.98 397.675 289.711 397.154 286.511C395.363 273.749 397.666 260.749 403.727 249.377C407.701 242.019 437.746 190.021 441.155 184.135C448.195 171.871 454.621 160.048 454.131 155.413C453.886 152.961 452.243 146.092 450.328 138.097C448.342 129.684 446.062 120.143 445.007 114.159C443.698 104.822 442.88 95.4225 442.553 86.0014C442.357 82.297 442.235 79.3536 442.063 77.9554C441.099 72.8337 438.621 68.1177 434.951 64.4173C432.155 61.5964 397.374 14.1111 393.255 8.39586C392.578 7.4238 391.994 6.38912 391.512 5.30542C390.114 2.43552 388.692 -0.50652 382.561 0.645249C381.123 0.932511 379.772 1.54651 378.611 2.4396C377.45 3.3327 376.51 4.48175 375.864 5.79689C373.786 10.2842 373.48 15.3909 375.006 20.096C369.119 17.2261 363.845 17.8387 359.652 21.8863C358.838 22.6786 358.211 23.6425 357.817 24.7072C357.423 25.7718 357.271 26.9113 357.37 28.0427C357.64 33.7089 362.497 40.1104 365.686 42.7597C371.364 47.1313 376.378 52.302 380.573 58.1139C381.432 59.5597 382.708 61.3759 384.179 63.5093C387.805 68.6133 391.083 73.9555 393.99 79.5006C394.431 80.3597 394.824 81.2174 395.192 81.9539L395.437 82.493C395.829 83.4256 396.172 84.3078 396.443 85.1424C396.443 85.3629 396.615 85.5835 396.688 85.804C397.063 86.9898 397.284 88.2178 397.35 89.4595C397.374 89.9006 397.374 90.343 397.35 90.7841C397.342 92.4342 397.152 94.0802 396.786 95.6894C396.278 98.498 395.549 101.262 394.602 103.955C394.431 104.347 394.284 104.74 394.088 105.157C393.451 106.775 392.739 108.419 392.028 110.062C390.532 113.545 388.986 117.151 387.784 120.732C383.394 133.928 363.036 157.056 353.25 168.143C341.942 180.995 336.253 193.676 326.761 227.009C326.417 228.211 326 229.461 325.583 230.908C321.56 244.006 315.036 265.639 327.325 284.158Z" fill="#373737"/>
<path d="M380.672 101.846C376.772 112.643 371.084 122.71 363.846 131.622C354.697 142.953 336.865 150.091 333.383 151.391C329.536 152.732 325.556 153.662 321.511 154.163C319.193 154.415 316.912 154.942 314.718 155.733C313.344 156.321 311.676 157.302 311.333 158.577C310.842 160.466 313.075 163.483 314.693 165.568C315.679 166.728 316.504 168.014 317.147 169.393C319.304 175.01 317.147 187.397 311.064 206.184C307.457 219.314 304.6 232.637 302.503 246.091C301.747 253.594 301.747 261.154 302.503 268.656C302.929 269.746 303.136 270.91 303.11 272.08C303.086 273.25 302.828 274.404 302.356 275.474C299.658 281.092 290.951 282.637 258.502 282.98V283.152H256.048C221.71 282.882 212.537 281.41 209.765 275.646C209.287 274.577 209.027 273.423 209.003 272.252C208.977 271.081 209.187 269.917 209.618 268.828C210.36 261.324 210.36 253.766 209.618 246.262C207.433 232.84 204.502 219.551 200.837 206.454C194.656 187.642 192.596 175.231 194.754 169.664C195.397 168.284 196.222 166.997 197.207 165.837C198.826 163.679 201.059 160.736 200.567 158.848C200.224 157.572 198.532 156.59 197.183 156.002C194.984 155.196 192.694 154.669 190.365 154.432C186.325 153.904 182.355 152.951 178.518 151.587C175.035 150.287 157.203 143.15 148.054 131.818C140.817 122.906 135.129 112.839 131.228 102.042C128.187 93.6541 126.764 87.7673 129.168 84.3324C129.772 83.5088 130.575 82.8526 131.501 82.4237C132.428 81.9949 133.447 81.807 134.466 81.8805C140.279 81.8805 142.29 86.5407 143.909 90.2928C144.302 91.2253 144.719 92.1824 145.209 93.0891C145.7 93.9972 146.411 95.5424 147 96.8671C148.253 99.8255 149.755 102.672 151.488 105.377C155.41 111.679 160.905 116.853 167.431 120.389C168.387 120.879 169.418 121.369 170.522 121.885C174.684 123.836 179.356 124.427 183.873 123.573C188.391 122.718 192.524 120.462 195.687 117.127C197.771 114.796 200.328 112.933 203.187 111.666C206.044 110.397 209.14 109.75 212.267 109.768H212.586C218.795 109.737 224.99 110.396 231.055 111.73L233.803 112.27C240.736 113.704 247.746 114.744 254.797 115.385H255.926C263.41 114.808 270.848 113.752 278.196 112.221L280.943 111.681C287.007 110.344 293.203 109.695 299.413 109.744C302.59 109.703 305.74 110.337 308.654 111.606C311.567 112.873 314.177 114.747 316.312 117.102C319.494 120.409 323.628 122.642 328.137 123.49C332.648 124.338 337.311 123.761 341.477 121.836L344.567 120.364C351.084 116.804 356.575 111.626 360.511 105.328C362.24 102.621 363.741 99.7738 364.998 96.8181C365.588 95.5179 366.127 94.3648 366.814 93.0401C367.5 91.7155 367.696 91.1763 368.09 90.2438C369.709 86.4917 371.719 81.8315 377.533 81.8315C378.551 81.758 379.571 81.9458 380.498 82.3747C381.424 82.8035 382.227 83.4597 382.83 84.2834C385.136 87.5713 383.714 93.4567 380.672 101.846Z" fill="#373737"/>
</svg>
