<svg width="511" height="294" viewBox="0 0 511 294" fill="none" xmlns="http://www.w3.org/2000/svg">
<path d="M234.745 291.438C232.939 293.364 228.893 293.846 224.293 293.846C222.68 293.846 221.017 293.846 219.476 293.725H216.923C212.782 293.725 167.915 293.292 161.244 293.196C153.296 293.196 152.236 288.138 151.779 285.97C151.563 285.007 151.128 282.526 150.574 279.131C149.587 273.23 148.166 265.162 146.818 258.468C144.891 249.292 138.099 244.74 134.463 242.284L133.451 241.585C130.754 239.731 105.418 222.318 99.7356 218.586C94.0707 214.14 88.6753 209.363 83.5754 204.281C79.2406 200.187 75.1468 196.309 73.3647 195.008C71.5826 193.708 68.8611 191.18 66.1396 188.675C63.12 185.682 59.9015 182.898 56.5061 180.341C51.0767 176.243 46.4765 171.153 42.9477 165.338C39.7919 160.256 27.1251 132.2 25.1973 127.721C24.6678 126.54 23.7284 124.445 22.597 121.964C19.4426 114.98 15.0833 105.419 13.9029 101.614C12.2651 96.3165 6.91876 77.8446 6.268 73.341L6.07605 72.1606C4.64382 62.9192 3.99986 53.5744 4.14961 44.2241C4.14961 41.5993 7.3762 18.022 11.0616 8.62951C11.5667 6.87054 12.4394 5.24091 13.6225 3.84544C14.8069 2.44998 16.2732 1.32271 17.9246 0.537169C19.1934 0.136908 20.5344 0.0130198 21.8564 0.17503C23.177 0.33704 24.4485 0.780868 25.5826 1.47656C29.6778 3.71611 32.4946 9.88202 33.3863 14.6497C33.8914 17.4679 34.2767 27.8475 34.6389 37.0235C34.8308 42.1534 34.9751 46.657 35.1194 48.3424C36.4169 56.6185 38.1936 64.813 40.4426 72.8835C42.0804 78.8071 58.649 113.029 62.5264 117.726C77.1454 135.403 87.6216 139.4 96.8684 142.892L100.626 144.361C104.938 146.096 112.186 143.904 115.558 139.835C116.762 138.43 117.438 136.649 117.474 134.799C117.509 132.95 116.901 131.145 115.75 129.695C110.115 120.784 102.915 109.995 96.4832 100.482L95.232 98.6037C90.0531 90.8735 90.6794 77.6758 94.6779 71.5099C95.3491 70.2192 96.4042 69.1668 97.6989 68.4984C98.9923 67.8299 100.46 67.578 101.903 67.7768C112.474 69.5358 125.07 86.5387 133.789 100.507C140.018 110.042 147.403 118.771 155.776 126.493L157.317 127.793C160.593 130.634 160.593 130.634 173.092 138.943L180.558 143.928C195.995 154.236 205.026 162.569 208.157 169.384C208.711 170.324 210.011 172.9 208.88 174.345C208.538 174.721 208.086 174.98 207.589 175.083C207.091 175.188 206.574 175.131 206.111 174.923C197.334 170.633 189.171 165.19 181.834 158.739L180.029 157.221C174.586 152.695 155.945 137.956 143.711 137.377C135.065 137.016 132.897 138.485 132.368 139.377C131.838 140.268 132.176 141.038 132.969 142.363C135.065 145.83 141.929 156.428 146.48 163.435L148.744 166.927C151.153 170.565 163.58 188.915 177.789 195.081C190.962 200.741 193.684 201.92 206.037 202.764H207.195V203.943C207.195 205.702 207.049 207.459 206.954 209.217C205.72 223.004 207.512 236.895 212.203 249.918C214.226 256.035 220.609 264.946 226.219 272.822C231.831 280.696 235.467 285.851 235.853 288.499C235.903 289.04 235.83 289.586 235.638 290.096C235.446 290.605 235.141 291.064 234.745 291.438Z" fill="#373737"/>
<path d="M507.342 44.2715C507.47 53.615 506.81 62.9531 505.368 72.1849L505.199 73.3885C504.525 77.9642 499.13 96.7247 497.541 101.686C496.361 105.468 492.002 115.077 488.823 122.084C487.714 124.492 486.775 126.588 486.27 127.768C484.391 132.199 471.675 160.256 468.497 165.386C464.975 171.206 460.373 176.299 454.938 180.39C451.552 182.941 448.334 185.709 445.305 188.674C442.608 191.083 440.078 193.491 438.079 195.057C436.081 196.622 432.204 200.234 427.844 204.328C422.744 209.412 417.348 214.189 411.684 218.634C406.146 222.27 381.652 239.129 377.968 241.634L377.004 242.308C373.938 244.018 371.256 246.339 369.123 249.126C366.99 251.914 365.451 255.109 364.602 258.516C363.133 265.524 361.664 274.194 360.724 279.925C360.219 282.912 359.834 285.128 359.641 286.019C359.183 288.138 358.124 293.076 350.152 293.243C343.481 293.243 298.615 293.774 294.472 293.774H291.919C290.257 293.774 288.571 293.894 287.102 293.894C282.502 293.894 278.456 293.436 276.651 291.485C276.284 291.101 276.008 290.64 275.842 290.136C275.675 289.632 275.621 289.099 275.687 288.572C275.928 286.164 278.746 282.454 283.658 276.048C289.727 268.125 297.29 258.299 299.216 250.11C304.563 227.28 304.682 216.611 304.25 204.039V202.859H305.405C317.447 202.065 319.856 201.005 331.584 195.947L333.439 195.153C348.056 188.819 361.038 169.215 362.338 167C367.154 159.51 375.776 146.337 378.113 142.435C378.908 141.087 379.124 140.026 378.739 139.425C378.354 138.823 376.065 137.016 367.395 137.449C355.667 137.931 338.062 151.49 331.055 157.295L329.537 158.57C322.275 165.045 314.174 170.514 305.453 174.827C304.081 175.357 303.045 175.26 302.515 174.586C301.408 173.406 302.346 171.407 303.238 169.456C306.369 162.641 315.4 154.308 330.837 144L338.351 138.992C350.802 130.706 350.802 130.706 354.078 127.865L355.619 126.565C363.985 118.836 371.369 110.109 377.606 100.579C386.325 86.6107 398.921 69.6077 409.494 67.8501C410.933 67.6745 412.392 67.9373 413.68 68.603C414.969 69.2688 416.027 70.3075 416.717 71.5818C420.691 77.7478 421.318 90.8488 416.14 98.6756C410.528 107.129 402.003 119.869 395.693 129.767C394.549 131.226 393.946 133.038 393.991 134.892C394.034 136.747 394.722 138.527 395.934 139.93C399.306 143.976 406.554 146.168 410.841 144.433L414.574 142.989C423.823 139.472 434.299 135.5 448.941 117.798C452.866 112.982 469.436 78.8314 471.025 72.9555C473.281 64.8877 475.049 56.6932 476.323 48.4144C476.468 46.6568 476.637 42.2253 476.83 37.0954C477.166 27.9194 477.576 17.5399 478.081 14.7217C478.973 9.90497 481.791 3.78807 485.86 1.54852C486.998 0.847383 488.273 0.400836 489.599 0.238826C490.925 0.0768161 492.27 0.203433 493.543 0.609139C495.194 1.39196 496.659 2.51922 497.838 3.91468C499.018 5.31151 499.886 6.9425 500.383 8.70147C504.091 17.9006 507.319 41.3581 507.342 44.2715Z" fill="#373737"/>
<path d="M221.765 139.882C221.34 139.884 220.923 139.773 220.554 139.561C220.187 139.35 219.882 139.045 219.669 138.677L210.349 122.517C210.035 121.964 209.953 121.31 210.119 120.697C210.286 120.083 210.689 119.56 211.241 119.243C211.791 118.926 212.443 118.84 213.056 119.002C213.67 119.165 214.194 119.563 214.515 120.109L223.86 136.269C224.174 136.822 224.256 137.476 224.09 138.091C223.923 138.705 223.52 139.226 222.968 139.545C222.605 139.761 222.188 139.877 221.765 139.882Z" fill="#373737"/>
<path d="M289.896 140.099C289.474 140.101 289.059 139.992 288.693 139.785C288.418 139.626 288.178 139.414 287.986 139.162C287.794 138.91 287.654 138.621 287.573 138.315C287.493 138.009 287.474 137.689 287.516 137.376C287.56 137.061 287.665 136.759 287.825 136.485L297.146 120.35C297.463 119.8 297.986 119.397 298.6 119.229C299.212 119.062 299.867 119.145 300.42 119.459C300.696 119.616 300.939 119.827 301.133 120.077C301.327 120.329 301.47 120.617 301.553 120.923C301.636 121.229 301.657 121.55 301.615 121.865C301.574 122.179 301.471 122.483 301.312 122.758L291.991 138.894C291.779 139.261 291.474 139.566 291.106 139.777C290.737 139.99 290.321 140.1 289.896 140.099Z" fill="#373737"/>
<path d="M255.722 131.789C255.083 131.789 254.47 131.535 254.018 131.084C253.568 130.632 253.313 130.02 253.313 129.381V110.74C253.313 110.102 253.568 109.489 254.018 109.037C254.47 108.585 255.083 108.332 255.722 108.332C256.36 108.332 256.973 108.585 257.425 109.037C257.877 109.489 258.13 110.102 258.13 110.74V129.381C258.13 130.02 257.877 130.632 257.425 131.084C256.973 131.535 256.36 131.789 255.722 131.789Z" fill="#373737"/>
</svg>
