<svg width="511" height="330" viewBox="0 0 511 330" fill="none" xmlns="http://www.w3.org/2000/svg">
<path d="M236.458 328.418C236.274 328.634 236.04 328.803 235.776 328.911C235.513 329.018 235.227 329.061 234.944 329.033H233.855C233.069 328.933 232.28 328.878 231.487 328.869H223.7H213.284C209.259 328.869 164.638 328.443 157.94 328.347C151.856 328.347 144.068 325.601 141.489 313.434C139.641 304.605 133.321 300.226 129.652 297.621L128.255 296.627C96.7016 273.216 93.9311 269.878 82.2854 255.746L80.9117 254.089C74.7336 246.327 69.0714 238.166 63.9633 229.66L63.0634 228.192C58.3379 220.363 54.0167 212.296 50.1148 204.024C43.5663 187.427 38.9293 170.138 36.2909 152.491C36.1724 151.758 36.0309 150.953 35.8893 150.124C34.2351 141.162 33.4428 132.062 33.5217 122.948C33.5217 122.31 33.6633 107.065 45.358 106.378C55.0868 105.952 59.0867 125.742 59.8205 129.719C61.5019 138.975 63.1342 146.549 65.1001 154.267C68.3689 166.583 73.1394 178.454 79.3025 189.608C86.4038 201.041 95.8725 209.587 105.744 213.659C110.478 215.553 116.775 216.025 119.591 213.659C121.391 212.048 121.699 209.232 120.562 205.303C117.178 193.703 111.544 184.424 105.578 174.529C100.535 166.22 99.2584 157.177 102.429 152.467C103.193 151.34 104.281 150.468 105.548 149.97C106.816 149.472 108.204 149.368 109.532 149.675C121.699 151.687 130.197 165.297 135.263 173.346L137.629 177.062C141.928 184.522 146.787 191.643 152.164 198.366C153.23 199.597 154.176 200.734 155.17 202.107C160.132 209.002 166.908 214.385 174.747 217.659C178.536 219.51 182.451 221.092 186.463 222.393C191.478 223.985 195.89 227.058 199.123 231.208C202.355 235.357 204.256 240.388 204.573 245.639C204.76 250.796 205.434 255.925 206.585 260.954C207.911 267.671 210.453 274.09 214.088 279.891L214.822 280.98C222.828 292.474 229.201 305.02 233.759 318.263C234.518 320.512 235.133 322.24 235.607 323.518C236.79 326.714 237.145 327.543 236.458 328.418Z" fill="#373737"/>
<path d="M477.578 122.782C477.641 131.888 476.847 140.978 475.211 149.933C475.046 150.881 474.903 151.685 474.809 152.301C472.153 169.959 467.516 187.262 460.985 203.881C457.075 212.153 452.746 220.22 448.012 228.051L447.113 229.518C442.071 237.982 436.471 246.105 430.354 253.828L428.98 255.509C417.333 269.712 414.564 272.979 383.01 296.366L381.614 297.361C378.682 299.07 376.126 301.351 374.093 304.068C372.059 306.784 370.593 309.88 369.777 313.173C367.222 325.341 359.433 327.992 353.207 328.086C346.509 328.086 301.911 328.607 297.864 328.607H287.448H279.66C278.868 328.615 278.078 328.671 277.293 328.773H276.203C275.92 328.803 275.633 328.763 275.369 328.656C275.105 328.549 274.871 328.377 274.688 328.158C274.002 327.281 274.334 326.358 275.447 323.257C275.92 321.98 276.536 320.251 277.293 318.002C279.453 311.604 282.088 305.379 285.175 299.373C288.489 292.911 292.222 286.671 296.349 280.696L297.058 279.631C300.712 273.838 303.256 267.417 304.562 260.694C305.721 255.655 306.401 250.52 306.599 245.355C306.885 240.099 308.768 235.055 311.994 230.899C315.221 226.741 319.64 223.666 324.66 222.085C328.67 220.781 332.586 219.199 336.377 217.351C348.331 211.67 352.38 206.438 355.93 201.798C356.924 200.497 357.872 199.289 358.959 198.058C364.321 191.328 369.17 184.207 373.471 176.753L375.837 173.037C380.927 164.894 389.401 151.282 401.569 149.366C402.895 149.066 404.283 149.174 405.549 149.671C406.815 150.169 407.903 151.036 408.671 152.159C411.843 156.893 410.54 165.912 405.522 174.174C399.533 184.021 393.899 193.3 390.515 204.947C389.378 208.876 389.709 211.693 391.484 213.302C394.302 215.859 400.599 215.291 405.356 213.302C415.369 209.469 424.719 200.923 431.822 189.417C437.99 178.266 442.761 166.396 446.024 154.076C447.373 148.845 449.172 141.341 451.302 129.53C452.036 125.551 456.037 105.597 465.789 106.189C477.436 106.875 477.578 122.119 477.578 122.782Z" fill="#373737"/>
<path d="M362.061 161.746L361.539 162.243H361.185C358.628 163.782 355.953 165.06 353.112 166.409C347.405 168.999 341.946 172.104 336.803 175.689C332.004 179.501 327.985 184.203 324.967 189.537C323.954 191.114 322.781 192.582 321.464 193.916C320.82 194.572 320.123 195.174 319.381 195.716C316.597 197.598 313.267 198.506 309.912 198.295C308.291 198.285 306.671 198.191 305.059 198.011C303 197.822 300.656 197.491 298.124 197.04C297.508 197.04 296.845 196.803 296.206 196.639C286.358 194.271 272.25 192.827 254.308 192.591C240.079 192.192 225.865 193.786 212.077 197.325C209.841 197.815 207.568 198.132 205.284 198.271C200.451 198.775 195.595 197.596 191.531 194.934C189.7 193.619 188.039 192.085 186.583 190.365L184.808 188.377C181.908 184.915 178.47 181.942 174.629 179.572C168.995 176.304 164.355 174.055 160.26 172.067C156.622 170.392 153.074 168.528 149.631 166.48C142.033 162.503 138.08 153.461 138.08 149.744C138.08 93.596 191.388 46.1815 254.497 46.1815C284.228 45.9787 313.002 56.6918 335.359 76.2923C357.469 95.9622 369.636 121.978 369.636 149.555C370.274 155.213 364.167 160.35 362.061 161.746Z" fill="#373737"/>
<path d="M342.177 58.2302C341.408 58.8292 340.474 59.1764 339.502 59.2254C338.406 59.2281 337.344 58.8524 336.496 58.1594C336.496 58.1594 327.027 50.4659 307.948 42.8909C289.01 35.7897 279.045 35.0804 278.926 35.0804C277.878 35.0083 276.884 34.5903 276.1 33.8919C275.316 33.1935 274.786 32.2541 274.594 31.2208C274.397 30.2065 274.538 29.1541 274.996 28.227C275.453 27.2985 276.202 26.547 277.126 26.0841L320.138 6.27121C320.732 6.0139 321.373 5.88184 322.019 5.88184C322.668 5.88184 323.307 6.0139 323.902 6.27121C324.496 6.51218 325.036 6.8716 325.488 7.32768C325.939 7.7824 326.294 8.3256 326.53 8.92327L343.786 52.8811C344.12 53.8287 344.144 54.8565 343.854 55.8191C343.565 56.7802 342.977 57.6257 342.177 58.2302Z" fill="#373737"/>
<path d="M246.637 29.8485C246.38 30.8668 245.792 31.7695 244.964 32.4175C244.138 33.0642 243.119 33.4181 242.068 33.4222C242.068 33.4222 231.653 33.5652 212.03 39.1035C192.524 45.0461 182.416 51.9104 182.322 51.9812C181.53 52.534 180.587 52.8308 179.622 52.8335C178.483 52.8321 177.383 52.421 176.522 51.6735C175.73 50.986 175.189 50.0548 174.984 49.0269C174.778 47.999 174.918 46.9317 175.385 45.9923L196.335 3.54973C196.625 2.98474 197.027 2.48373 197.514 2.07666C198.003 1.6696 198.568 1.366 199.175 1.18221C199.784 0.9848 200.426 0.916724 201.062 0.982073C201.698 1.04742 202.313 1.24347 202.869 1.56068L244.34 24.5933C245.246 25.0971 245.961 25.884 246.376 26.8329C246.79 27.7832 246.882 28.8424 246.637 29.8485Z" fill="#373737"/>
<path d="M156.709 71.2262C156.709 71.2262 148.85 77.4751 137.961 94.4249C127.309 111.799 124.374 123.21 124.35 123.328C124.098 124.346 123.515 125.252 122.693 125.904C121.87 126.555 120.855 126.914 119.805 126.926C118.768 126.926 117.759 126.586 116.933 125.958C116.107 125.329 115.511 124.447 115.236 123.447L102.643 78.1626C102.469 77.5364 102.425 76.8815 102.515 76.2376C102.603 75.595 102.825 74.9769 103.164 74.4228C103.506 73.8701 103.957 73.3936 104.49 73.0219C105.024 72.6516 105.629 72.3956 106.264 72.2677L152.874 62.7989C153.924 62.5852 155.014 62.7336 155.969 63.2182C156.923 63.7043 157.686 64.4993 158.129 65.4741C158.583 66.4516 158.689 67.5544 158.43 68.6C158.172 69.6455 157.564 70.5727 156.709 71.2262Z" fill="#373737"/>
<path d="M410.232 84.5544L395.2 129.909C394.887 130.854 394.283 131.675 393.475 132.258C392.668 132.84 391.699 133.152 390.702 133.152H390.253C389.188 133.049 388.189 132.587 387.42 131.844C386.651 131.1 386.155 130.117 386.016 129.057C386.016 129.057 384.264 116.936 374.321 99.2783C364.096 82.0208 356.592 75.6057 356.521 75.4165C355.714 74.7249 355.161 73.7814 354.955 72.7372C354.75 71.6943 354.901 70.612 355.384 69.6645C355.881 68.7319 356.675 67.9926 357.64 67.5638C358.605 67.1349 359.686 67.041 360.711 67.2969L406.871 78.5655C407.513 78.7261 408.115 79.0188 408.636 79.4273C409.159 79.8343 409.589 80.3476 409.9 80.9316C410.191 81.4844 410.371 82.0889 410.428 82.7097C410.485 83.3318 410.418 83.9581 410.232 84.5544Z" fill="#373737"/>
</svg>
