<svg width="511" height="250" viewBox="0 0 511 250" fill="none" xmlns="http://www.w3.org/2000/svg">
<path d="M237.389 247.678C236.351 249.122 234.358 249.081 231.288 249H229.377C227.222 249 219.392 249 213.862 249H208.269H185.901H153.142C138.297 249 134.515 241.943 132.502 238.161C132.299 237.815 132.137 237.49 131.973 237.205C130.946 235.342 130.055 233.404 129.31 231.41C127.763 227.055 125.479 222.996 122.559 219.413C108.324 202.881 95.1671 192.815 83.4752 183.929C74.2025 176.872 66.1905 170.772 59.7441 162.964C52.8961 154.334 46.639 145.25 41.0163 135.776L39.9993 134.129C37.0055 128.49 34.4814 122.614 32.4556 116.56C31.8457 114.953 31.3175 113.53 30.8695 112.493C23.5682 93.9395 18.3839 74.6208 15.4146 54.9046C13.7441 43.0983 12.9477 31.183 13.0362 19.2583C13.0362 18.5258 13.1778 1.09952 25.9684 1.0791C33.2888 1.0791 37.6821 16.7369 40.0606 25.1546L40.5289 26.7815C42.989 35.3436 44.5955 42.1752 46.1407 48.1941C46.7098 50.4309 47.2189 52.5058 47.7268 54.4785C51.3836 68.3065 56.7313 81.6308 63.6487 94.1505L65.6826 97.4452C73.1855 109.646 79.6931 120.18 89.4736 124.185C94.5164 126.219 97.6082 126.606 98.8485 125.425C99.7021 124.613 100.332 122.396 98.3597 116.418C94.1651 104.365 90.7684 92.0498 88.1926 79.5506C85.8958 68.5298 84.7358 62.1038 87.3185 58.4838C88.0428 57.6111 88.9427 56.9004 89.957 56.3967C90.9726 55.8916 92.0835 55.6057 93.2162 55.5554C105.295 54.0714 108.69 64.116 111.964 73.857C112.29 74.8536 112.636 75.8897 112.981 76.8658C116.011 85.4878 122.07 101.105 128.822 108.893C134.922 115.97 138.318 119.366 153.935 125.934C159.446 128.231 170.548 129.33 180.899 128.557C191.737 127.744 199.445 134.657 202.617 147.896C203.571 152.198 203.892 156.616 203.572 161.012V163.044C203.615 173.753 206.657 184.236 212.356 193.303C213.252 194.665 214.39 196.171 215.549 197.878C224.221 209.423 230.883 222.347 235.254 236.108C238.101 243.468 238.588 246.071 237.389 247.678Z" fill="#373737"/>
<path d="M497.674 19.1566C497.753 31.0405 496.958 42.9136 495.294 54.6818C492.332 74.4334 487.139 93.7875 479.82 112.371C479.372 113.489 478.844 114.913 478.253 116.438C476.178 122.525 473.601 128.429 470.547 134.089L469.53 135.736C463.943 145.235 457.72 154.345 450.903 163.004C444.457 170.813 436.445 176.914 427.174 183.97C415.419 192.856 402.1 202.921 388.028 219.453C385.108 223.036 382.824 227.095 381.277 231.451C380.539 233.444 379.656 235.382 378.634 237.247L378.105 238.202C376.072 241.985 372.309 249.041 357.445 249.041H324.686H302.318H296.746C291.195 249.041 283.386 249.041 281.211 249.041H279.299C276.269 249.041 274.277 249.162 273.199 247.719C272.12 246.274 272.527 243.509 275.233 236.066C279.652 222.315 286.369 209.408 295.099 197.899C296.318 196.19 297.417 194.686 298.291 193.323C303.989 184.254 307.038 173.774 307.097 163.065V161.033C306.776 156.637 307.098 152.219 308.053 147.917C311.225 134.637 318.952 127.785 329.791 128.577C340.14 129.351 351.222 128.252 356.733 125.954C372.309 119.204 375.665 115.807 381.766 108.731C388.517 100.943 394.597 85.3262 397.606 76.7043C397.972 75.7077 398.298 74.6703 398.643 73.6941C401.897 63.9953 405.293 53.9493 417.371 55.3924C418.508 55.4401 419.622 55.726 420.64 56.2297C421.66 56.7348 422.562 57.4468 423.289 58.3209C425.872 61.9409 424.692 68.3669 422.394 79.408C420.172 91.8338 416.222 103.887 410.661 115.218C408.628 119.284 408.282 122.456 409.787 124.083C411.596 126.117 416.192 126.117 421.215 124.083C430.996 120.017 437.482 109.545 445.007 97.3435L447.04 94.0489C454 81.5264 459.396 68.1953 463.104 54.3564C463.592 52.3224 464.121 50.2884 464.67 48.072C466.154 41.9728 467.842 35.2215 470.302 26.6595L470.771 25.0339C473.028 16.6148 477.44 0.957031 484.761 0.957031C491.146 0.957031 494.4 5.32857 496.026 9.78181C497.072 12.7987 497.628 15.9641 497.674 19.1566Z" fill="#373737"/>
<path d="M389.35 39.289L389.045 39.8173C384.98 46.4774 381.672 53.5704 379.182 60.9657V61.2094H378.938C374.587 62.6729 370.275 64.2998 369.645 64.5639L367.246 65.5809C360.759 68.3664 358.34 69.4038 347.948 76.8059C344.532 79.1925 341.303 81.8364 338.29 84.7158L338.167 85.2645L337.985 85.0004C336.057 86.9173 334.327 89.0221 332.82 91.2847C331.818 92.8899 330.639 94.3779 329.302 95.7176C328.662 96.3547 327.983 96.9524 327.268 97.5065C324.538 99.4805 321.218 100.464 317.854 100.292C316.086 100.28 314.322 100.178 312.566 99.987C310.288 99.7229 307.787 99.3771 304.961 98.9305L302.927 98.503C291.642 95.6971 275.659 94.1519 255.446 93.8864C239.315 93.4195 223.197 95.1989 207.557 99.1742C205.201 99.6889 202.807 100.016 200.4 100.15C195.462 100.684 190.493 99.4996 186.329 96.7944C184.413 95.4249 182.679 93.8197 181.163 92.0158L180.126 90.8777L179.17 89.779C175.769 85.7437 171.748 82.2775 167.254 79.5097C155.054 72.3731 139.965 64.7478 139.802 64.6661C137.223 63.2053 134.538 61.9419 131.771 60.884H131.526V60.6403C130.754 57.9964 130.103 55.6166 129.493 53.4615C127.459 45.6128 126.096 40.8547 122.213 37.3163L121.745 36.8888L122.253 36.5226C123.286 35.6948 124.478 35.0863 125.753 34.7364C127.03 34.3865 128.366 34.3035 129.675 34.49C132.933 35.1407 135.821 37.01 137.749 39.7151C139.437 42.1153 140.393 49.5365 141.083 54.9455C141.083 55.8209 141.307 56.6745 141.408 57.4069C142.402 54.3532 144.086 51.5705 146.33 49.2724C149.665 45.4086 151.861 42.8464 144.541 36.4409L143.727 35.7098L144.805 35.5464C146.087 35.4185 147.382 35.5614 148.605 35.9685C149.829 36.3742 150.952 37.0345 151.902 37.9058C158.613 43.2535 163.981 56.3491 165.647 66.9437C168.068 53.6848 174.635 44.7374 180.146 43.4768L181.225 43.2331L180.715 44.2092C176.161 52.872 172.908 73.0851 175.409 81.7874C177.666 74.8128 179.313 70.7666 180.431 68.0206C181.855 64.5639 182.342 63.385 181.997 61.1073L181.468 57.4682L182.973 60.8432C186.044 67.7361 187.426 81.1775 188.199 89.0479C189.988 77.4975 191.249 57.6506 189.562 50.1069L188.463 45.2875L190.497 49.7816C193.119 55.5567 195.01 60.172 196.598 63.8928C198.184 67.6149 199.099 69.9933 199.993 71.6203C202.697 63.7512 206.094 54.5397 209.367 50.2894L210.527 48.785L210.283 50.676C209.064 63.5579 209.515 76.5445 211.624 89.312C212.186 79.8828 214.047 70.576 217.155 61.656L218.152 58.7888L218.254 61.4735C218.774 69.879 220.528 78.1633 223.459 86.0582C224.065 81.6553 225.003 77.3042 226.266 73.0443C228.462 65.0323 230.333 58.0985 226.266 49.7611L225.9 49.0083H226.733C233.566 49.1907 233.972 57.1428 234.338 64.2386C234.401 66.2794 234.571 68.3161 234.847 70.3391C236.718 66.2725 242.127 55.9829 248.694 55.1497L249.57 55.0476L249.224 55.8413C245.747 64.2181 244.018 74.6712 242.878 81.5846C242.878 81.7874 242.878 81.9712 242.878 82.1536C247.617 70.6441 253.352 64.5231 256.829 64.5231C260.306 64.5231 267.952 72.6577 272.262 83.8826C270.351 55.8821 266.304 40.9758 259.289 35.7507L257.703 34.5703L259.737 34.8344C270.066 36.2585 278.77 52.2825 280.661 66.862C283.446 52.1804 291.133 43.376 294.896 43.376H295.688L295.363 44.0867C289.547 56.8174 287.615 76.8059 289.831 85.8349C295.037 72.271 295.668 64.6048 295.932 61.656L296.095 59.7853L296.908 61.4735C300.528 69.0172 302.175 80.4055 302.785 87.3393C304.329 76.2464 304.874 65.0377 304.412 53.8482C304.412 52.567 304.412 51.5296 304.412 50.7781V49.659L305.245 50.3711C309.089 53.6045 310.756 60.5382 312.119 66.0493C312.5 67.8396 312.989 69.604 313.583 71.3357C316.062 67.2582 318.165 62.9629 319.866 58.5042C320.861 55.5567 322.228 52.7495 323.934 50.1464L325.194 48.9878L324.787 50.6352C322.205 61.2502 324.36 81.0155 326.068 88.9662C328.244 68.5094 330.867 61.3306 330.989 61.0256L331.925 58.4838V61.189C331.925 67.2895 335.728 78.6153 337.699 82.7023C340.099 69.0989 338.167 51.7938 333.389 45.0424L332.779 44.1888H333.816C341.299 44.5346 346.851 58.4239 348.498 66.862C350.774 53.746 359.498 34.3266 369.076 34.7745H370.011L369.463 35.526C362.345 45.4086 363.708 48.6012 365.396 52.6691C366.093 54.1708 366.619 55.746 366.962 57.3661C370.398 47.1989 374.2 41.3625 378.797 39.0644C380.375 38.351 382.087 37.9834 383.819 37.9834C385.551 37.9834 387.263 38.351 388.841 39.0644L389.35 39.289Z" fill="#373737"/>
</svg>
