<svg width="511" height="248" viewBox="0 0 511 248" fill="none" xmlns="http://www.w3.org/2000/svg">
<path d="M388.454 56.2033C387.682 56.3463 386.665 56.6104 385.527 56.9154C383.563 56.7561 381.596 57.1591 379.852 58.0753C379.122 58.4279 378.439 58.8717 377.82 59.3959C374.871 60.4129 372.288 61.4299 371.23 61.7757L370.722 61.9785L366.533 63.7892L366.167 63.9512C367.239 60.7737 368.81 57.788 370.824 55.106L371.739 53.8249H370.174C363.849 53.5404 358.114 61.4299 354.231 70.6821C353.296 71.2921 352.197 72.0041 351.14 72.7161C350.429 73.1627 349.717 73.6923 348.944 74.2409C348.172 74.7896 347.541 75.2375 346.911 75.7453C344.165 69.4623 340.078 63.7688 335.097 63.5442H333.347L334.344 64.9682C336.885 68.4657 338.654 74.7896 339.448 81.9888C338.26 83.1447 337.147 84.374 336.112 85.6688C335.604 86.2378 335.156 86.8287 334.71 87.4386C334.188 85.2957 333.862 83.112 333.734 80.9106V76.3961L332.168 80.626C330.869 85.0452 329.923 89.5597 329.342 94.1287C329.041 94.4282 328.714 94.7005 328.366 94.9415C327.983 95.2314 327.581 95.4969 327.165 95.7352L326.332 96.1409C325.396 87.4795 324.989 77.2102 326.534 70.5405L327.165 67.7945L325.132 69.8285C324.115 70.7638 322.936 73.6923 321.066 78.3075C319.512 82.5756 317.601 86.7048 315.35 90.6516C314.945 89.4304 314.517 87.8035 314.069 85.9941C312.647 80.4626 310.837 73.5289 306.892 70.2547L305.488 69.0757V70.9054C305.488 71.6991 305.488 72.7161 305.631 73.9972C306.022 81.2645 306.022 88.5482 305.631 95.8155H305.122C305.021 95.825 304.919 95.825 304.817 95.8155H304.573L303.272 95.5105C302.369 90.7891 300.915 86.1888 298.941 81.805L297.497 79.0195L297.335 82.11C297.054 86.1126 296.407 90.0812 295.403 93.9653L293.552 93.7012L291.357 93.3962L287.879 92.9279C288.184 83.6157 293.532 72.9394 297.171 64.745L297.68 63.4843H296.379C292.128 63.4843 285.256 72.5119 282.469 85.6075C279.888 71.3737 271.184 56.6717 261.138 55.4518L257.579 54.7398L260.264 56.7738C266.08 60.9833 273.706 72.1865 276.186 91.8102C275.922 91.8102 271.835 91.5052 271.53 91.4644L266.751 91.2615C265.429 83.2495 267.321 79.3041 265.368 79.3449C263.416 79.3858 253.533 87.052 250.646 91.0573C249.426 91.0573 248.226 91.0573 247.066 91.0573C247.989 86.1997 249.351 81.4361 251.134 76.8235L251.683 75.4607L250.218 75.665C243.996 76.539 238.995 85.5871 236.799 90.1833C236.594 88.638 236.513 87.0111 236.391 85.2821C235.903 78.0638 235.395 69.9102 228.257 69.8081H226.875L227.485 71.0484C231.287 78.6737 229.986 85.2821 228.115 92.5426C227.505 92.5426 226.935 92.7046 226.346 92.7863L223.337 93.2533L221.73 93.5188C220.987 89.945 220.498 86.3222 220.265 82.6804L220.042 78.1864L218.497 82.822C217.126 86.7225 216.045 90.7197 215.263 94.7794C214.897 94.7794 214.531 94.9619 214.144 95.0231L212.558 95.3894L207.049 96.4867C206.459 88.3535 211.338 78.1863 212.051 72.0858L212.214 68.9735L210.342 71.5358C207.231 75.7453 204.039 84.551 201.476 92.2976C200.623 90.6312 199.606 88.231 198.345 85.3434C196.779 81.6634 194.827 77.0672 192.103 71.3329L188.605 63.8505L190.496 71.8816C191.594 76.4369 191.696 86.1167 191.106 95.6943L190.638 95.4901C190.151 95.2668 189.682 95.0231 189.236 94.7794L188.014 94.0062C187.377 90.0635 186.285 86.2079 184.762 82.5171L182.139 76.9052L183.156 83.0058C183.428 84.8723 183.086 86.7783 182.179 88.4352C181.772 87.9873 181.406 87.5598 180.979 87.1132C180.552 86.6653 180.573 86.6653 180.348 86.4216C179.433 85.4046 178.478 84.3877 177.461 83.3911C178.246 77.477 179.869 71.7059 182.28 66.2493L183.135 64.5816L181.324 65.0295C177.522 65.9444 173.191 70.4793 170.181 77.5356L168.961 76.7623L168.169 76.3144L165.83 74.953C164.731 74.343 163.796 73.7331 162.597 73.1627C160.569 68.0886 157.396 63.551 153.324 59.9051C152.329 59.0024 151.15 58.3285 149.869 57.9283C148.586 57.528 147.233 57.4109 145.901 57.5865L144.112 57.8915L145.475 59.0514C149.378 62.3447 150.559 64.5612 150.334 66.493L147.142 64.7654C143.705 62.9751 141.509 61.8369 141.469 61.8369C140.084 60.9997 138.644 60.259 137.158 59.6205C135.446 58.0576 133.334 57.0025 131.058 56.5696C130.308 56.4892 129.551 56.4892 128.8 56.5696C127.875 56.2646 126.931 56.0195 125.974 55.8385C134.84 46.9919 156.334 48.7209 173.984 39.1841C183.866 33.8364 193.566 34.8316 203.734 37.1501C215.101 39.7532 227.058 43.9831 240.54 42.9662C244.689 42.6598 248.787 41.8471 252.741 40.5469C268.113 35.5436 288.224 14.6607 313.744 23.7496C325.458 27.9387 329.89 38.9799 342.397 42.8436C370.031 51.3444 380.544 48.0293 388.454 56.2033Z" fill="#373737"/>
<path d="M204.425 34.4058C205.921 30.3664 208.771 26.971 212.487 24.7954C216.203 22.6199 220.558 21.7962 224.813 22.4674C229.067 23.1386 232.958 25.2611 235.825 28.4754C238.691 31.6884 240.357 35.7958 240.54 40.0993C231.287 41.0142 212.843 37.0075 204.425 34.4058Z" fill="#373737"/>
<path d="M198.263 23.0376C197.848 23.0363 197.444 22.9083 197.105 22.6714L188.848 16.9575C188.404 16.6471 188.1 16.1733 188.005 15.6396C187.91 15.1059 188.029 14.5559 188.34 14.1107C188.65 13.6656 189.124 13.3619 189.658 13.2666C190.191 13.1713 190.741 13.2925 191.187 13.6016L199.321 19.3359C199.675 19.5837 199.942 19.9377 200.081 20.3474C200.221 20.7559 200.226 21.1997 200.097 21.6122C199.968 22.0247 199.71 22.3855 199.363 22.6414C199.015 22.8974 198.594 23.0363 198.161 23.0376H198.263Z" fill="#373737"/>
<path d="M224.413 13.7052C223.874 13.7052 223.357 13.49 222.976 13.1088C222.595 12.7276 222.381 12.2103 222.381 11.6712V2.82597C222.381 2.28549 222.595 1.76949 222.976 1.38693C223.357 1.00573 223.874 0.791992 224.413 0.791992C224.953 0.791992 225.47 1.00573 225.851 1.38693C226.234 1.76949 226.447 2.28549 226.447 2.82597V11.6712C226.447 12.2103 226.234 12.7276 225.851 13.1088C225.47 13.49 224.953 13.7052 224.413 13.7052Z" fill="#373737"/>
<path d="M247.026 22.9776C246.585 22.9844 246.152 22.8482 245.794 22.5882C245.437 22.3282 245.173 21.9592 245.045 21.5358C244.915 21.1124 244.929 20.6591 245.08 20.2452C245.233 19.8299 245.516 19.4746 245.888 19.235L254.305 13.6436C254.529 13.4952 254.779 13.3917 255.042 13.3414C255.305 13.2896 255.574 13.2896 255.837 13.3427C256.1 13.3958 256.349 13.4993 256.571 13.6491C256.794 13.7988 256.985 13.9894 257.133 14.2127C257.28 14.436 257.383 14.6851 257.435 14.9478C257.487 15.2106 257.486 15.4815 257.432 15.7443C257.381 16.0071 257.276 16.2562 257.128 16.4781C256.978 16.7 256.786 16.8906 256.563 17.039L248.145 22.6318C247.814 22.8537 247.425 22.9735 247.026 22.9776Z" fill="#373737"/>
<path d="M234.236 235.537C226.63 211.867 216.28 200.255 211.461 193.016C205.635 183.786 202.527 173.103 202.493 162.188C202.493 155.416 202.819 152.306 201.599 147.222C198.914 136.017 192.428 127.803 180.939 128.656C170.222 129.45 159.119 128.31 153.506 125.952C137.443 119.201 134.007 115.561 128.007 108.647C122.008 101.734 116.274 88.5566 111.984 76.2942C108.282 65.7404 105.761 54.1914 93.3161 55.6958C84.9583 56.7128 85.9957 63.2599 89.1474 78.4902C91.7015 90.9432 95.056 103.217 99.1934 115.235C103.26 127.721 97.5665 127.68 89.0249 124.244C78.045 119.77 71.1711 107.427 62.733 93.7423C55.7488 81.1301 50.3521 67.7023 46.6681 53.7639C44.7975 46.6056 42.8248 37.9441 39.3681 26.1487C37.3341 19.3171 32.8414 1.15831 25.7851 1.17873C14.8651 1.17873 13.8481 15.4125 13.8481 18.3409C13.7419 30.1772 14.5302 42.0053 16.2074 53.7231C19.1318 73.4053 24.3025 92.6859 31.6202 111.189C33.6542 116.211 37.3341 127.254 40.8126 132.825C46.7116 142.835 53.2806 152.435 60.4757 161.558C74.9137 179.026 97.7898 188.238 123.289 217.986C128.983 224.637 129.939 231.063 132.785 235.922C134.637 239.074 137.381 247.208 153.121 247.208L208.187 247.065C210.016 247.065 226.061 247.065 229.315 247.065C237.103 247.208 239.075 248.51 234.236 235.537Z" fill="#373737"/>
<path d="M276.227 235.536C283.832 211.866 294.284 200.255 299.001 192.955C304.827 183.726 307.935 173.042 307.969 162.128C307.868 155.356 307.643 152.245 308.865 147.162C311.528 135.957 318.035 127.742 329.524 128.596C340.24 129.39 351.343 128.25 356.956 125.891C373.021 119.141 376.457 115.5 382.435 108.587C388.413 101.672 394.168 88.4963 398.479 76.2339C402.18 65.6801 404.701 54.1297 417.146 55.6355C425.504 56.6511 424.466 63.1996 421.214 78.4299C419.014 90.7699 415.098 102.741 409.582 113.996C403.583 126.197 412.815 127.62 421.417 124.163C432.398 119.689 439.27 107.347 447.71 93.6602C454.694 81.052 460.084 67.6229 463.753 53.6832C465.584 46.5861 467.556 37.8416 470.952 26.0475C472.985 19.2159 477.479 1.05713 484.535 1.07619C495.455 1.07619 496.472 15.3113 496.472 18.2397C496.579 30.076 495.79 41.9041 494.113 53.6219C491.168 73.2987 485.998 92.5779 478.699 111.088C476.666 116.11 472.985 127.153 469.508 132.724C463.609 142.734 457.04 152.334 449.845 161.457C435.407 178.924 412.531 188.135 387.031 217.885C381.338 224.534 380.382 230.96 377.534 235.821C375.684 238.972 372.918 247.107 357.199 247.107L302.134 246.964C300.282 246.964 284.259 246.964 281.006 246.964C273.36 247.208 271.387 248.509 276.227 235.536Z" fill="#373737"/>
<path d="M191.716 96.1219C191.61 96.0825 191.508 96.0348 191.411 95.979C191.502 96.0457 191.606 96.0947 191.716 96.1219Z" fill="#373737"/>
</svg>
