<svg width="511" height="248" viewBox="0 0 511 248" fill="none" xmlns="http://www.w3.org/2000/svg">
<path d="M234.92 235.375C227.335 211.685 216.863 200.094 212.144 192.671C206.328 183.438 203.222 172.758 203.177 161.844C203.299 155.073 203.502 151.962 202.303 146.878C199.619 135.674 193.112 127.459 181.623 128.312C170.927 129.106 159.823 127.967 154.212 125.607C138.126 118.878 134.69 115.217 128.712 108.324C122.733 101.43 116.979 88.3952 112.688 76.0525C108.988 65.4987 106.446 53.9484 94.0009 55.4527C85.6431 56.4697 86.6792 63.0182 89.933 78.2485C92.4843 90.7015 95.8389 102.975 99.979 114.993C104.046 127.5 98.3316 127.459 89.8118 124.021C78.8305 119.528 71.958 107.205 63.4981 93.5197C56.5344 80.9074 51.1459 67.4878 47.4537 53.5617C45.6239 46.4441 43.6512 37.701 40.2558 25.907C38.1605 19.2577 33.6065 0.956055 26.5298 0.956055C15.6302 0.956055 14.6745 15.1898 14.6745 18.1591C14.5683 29.9954 15.3566 41.8235 17.0339 53.5413C19.9568 73.2207 25.1207 92.5013 32.4262 111.007C34.4602 116.03 38.1605 127.072 41.6186 132.643C47.5245 142.65 54.0933 152.248 61.2817 161.376C75.7197 178.845 98.6162 188.056 124.095 217.806C129.789 224.455 130.765 230.902 133.612 235.74C135.463 238.893 138.208 247.026 153.947 247.026L209.013 246.904C210.843 246.904 226.867 246.904 230.121 246.904C237.787 247.006 239.76 248.328 234.92 235.375Z" fill="#373737"/>
<path d="M276.993 235.375C284.578 211.685 295.05 200.094 299.767 192.671C305.585 183.438 308.691 172.758 308.735 161.844C308.613 155.073 308.41 151.962 309.609 146.878C312.294 135.674 318.801 127.459 330.291 128.312C340.986 129.106 352.088 127.967 357.702 125.607C373.786 118.878 377.223 115.217 383.201 108.324C389.179 101.43 394.934 88.3952 399.184 76.0525C402.864 65.4987 405.406 53.9484 417.851 55.4527C426.209 56.4697 425.171 63.0182 421.919 78.2485C419.722 90.5885 415.806 102.56 410.287 113.813C404.186 126.014 413.52 127.459 422.122 123.982C433.102 119.488 439.955 107.164 448.415 93.4788C455.379 80.8665 460.767 67.4469 464.458 53.5209C466.289 46.4047 468.261 37.6602 471.657 25.8661C473.69 19.2577 478.307 0.956055 485.322 0.956055C496.222 0.956055 497.259 15.1898 497.259 18.1182C497.352 29.9559 496.557 41.7826 494.879 53.5004C491.956 73.1799 486.791 92.4618 479.486 110.966C477.453 115.99 473.751 127.031 470.295 132.604C464.387 142.609 457.818 152.207 450.631 161.337C436.193 178.845 413.236 188.036 387.816 217.806C382.123 224.455 381.147 230.902 378.3 235.74C376.45 238.893 373.705 247.026 357.966 247.026L302.939 247.006C301.11 247.006 285.086 247.006 281.832 247.006C274.065 247.006 272.092 248.328 276.993 235.375Z" fill="#373737"/>
<path d="M385.784 45.429C391.578 57.1618 389.586 58.2795 384.014 59.3169C373.745 61.3509 372.281 61.5946 368.56 62.9778C364.958 64.2426 361.469 65.8069 358.128 67.6543C354.295 69.8422 350.576 72.2246 346.984 74.7923C346.899 74.8713 346.803 74.9393 346.7 74.9952C344.402 76.6425 342.206 78.2286 340.274 79.8555C338.497 81.3081 336.806 82.8629 335.211 84.5116C334.021 85.8526 332.914 87.2657 331.896 88.7415L331.388 89.4536C330.379 91.0287 329.185 92.4759 327.829 93.7638L327.158 94.4146C326.711 94.7808 326.263 95.1675 325.815 95.4724C322.929 97.505 319.411 98.3192 311.582 97.5051C310.118 97.3226 308.491 97.0993 306.701 96.7944L304.22 96.4077H304.018L302.106 95.9802C300.377 95.5337 298.527 95.0858 296.554 94.7196C295.212 94.435 293.85 94.1709 292.386 93.9272C286.774 92.9919 280.51 92.2595 273.658 91.7312L267.191 91.3242C263.124 91.1199 258.935 90.9375 254.584 90.8354H253.017C251.554 90.8354 250.131 90.8354 248.727 90.8354C244.966 90.8354 241.427 90.9375 238.092 91.1009C235.163 91.2425 232.459 91.4453 229.959 91.7108C227.458 91.9749 225.017 92.239 222.739 92.544C220.463 92.8489 218.795 93.1131 217.025 93.4589C215.663 93.6631 214.422 93.9272 213.182 94.1709C210.681 94.6787 208.505 95.2287 206.553 95.6957C204.234 96.1749 201.882 96.4676 199.517 96.5697C197.196 96.7317 194.862 96.5738 192.583 96.1028H192.278C189.964 95.5541 187.772 94.5821 185.811 93.2356C183.953 91.8633 182.272 90.265 180.81 88.4774L178.776 86.2406C175.319 82.2952 169.218 75.3205 164.196 72.3308C151.995 65.0104 144.736 61.4517 140.79 60.1311C138.249 59.2557 133.042 57.0393 126.962 55.2299C120.882 53.4206 123.71 52.3219 127.105 45.8756C133.959 32.8821 152.239 21.4746 174.75 22.2262C203.401 23.1615 230.507 52.4853 256.78 52.1994C286.326 51.7937 304.038 22.105 340.294 22.105C369.332 22.105 381.879 37.5586 385.784 45.429Z" fill="#373737"/>
</svg>
