<svg width="511" height="262" viewBox="0 0 511 262" fill="none" xmlns="http://www.w3.org/2000/svg">
<path d="M277.125 249.949C282.091 234.497 289.455 219.922 298.949 206.759C303.502 200.494 309.747 189.216 309.538 176.038C309.538 169.209 308.765 163.696 309.789 158.537C312.002 147.134 321.149 140.535 331.32 141.286C342.117 142.08 353.897 141.558 364.443 136.692C374.99 131.826 377.58 128.839 384.221 121.926C390.648 114.89 396.507 107.355 401.743 99.392C406.282 92.6148 410.297 85.5004 413.751 78.1108C415.213 74.3933 419.39 74.1218 421.604 74.4141C422.76 74.5472 423.86 74.9846 424.792 75.6817C425.724 76.3788 426.455 77.3105 426.909 78.382C428.391 81.7653 427.64 83.1649 425.447 93.8787C423.116 103.78 419.979 113.475 416.07 122.866C413.772 127.544 418.43 131.032 420.247 131.742C424.424 133.455 427.055 131.993 429.707 128.505C434.066 122.801 437.837 116.672 440.964 110.21C446.636 99.7601 451.611 88.9461 455.855 77.839C459.928 66.4781 463.14 54.8265 465.461 42.9828C467.261 34.0316 468.364 24.9545 468.761 15.8329C468.993 13.9494 469.9 12.2138 471.313 10.9468C472.726 9.67978 474.549 8.96706 476.447 8.94092C480.352 8.94092 482.859 11.3634 483.611 15.603C484.237 21.4641 484.529 27.3565 484.488 33.2508C484.496 51.5024 482.322 69.6895 478.013 87.4252C476.154 95.1525 475.528 99.3922 464.773 126.208C458.8 141.099 446.227 160.939 434.302 176.122C420.184 194.082 417.323 197.883 391.635 227.874C385.892 234.578 384.137 246.294 381.193 251.202C379.334 254.376 374.781 261.644 358.95 261.644L303.419 261.497C301.56 261.497 285.395 261.497 282.117 261.497C274.222 261.727 272.238 263.023 277.125 249.949Z" fill="#E8E3DD" fill-opacity="0.9"/>
<path d="M234.374 249.949C229.413 234.492 222.04 219.916 212.529 206.76C207.977 200.495 201.753 189.217 201.962 176.039C202.066 169.21 202.714 163.696 201.711 158.538C199.477 147.135 190.35 140.535 180.158 141.287C169.361 142.081 157.582 141.559 147.035 136.693C136.489 131.827 133.899 128.84 127.258 121.927C120.836 114.886 114.978 107.351 109.736 99.3926C105.2 92.6169 101.192 85.5022 97.748 78.1114C96.2652 74.394 92.1092 74.1224 89.8954 74.4148C88.7392 74.5479 87.6391 74.9853 86.7071 75.6824C85.7752 76.3795 85.0448 77.3112 84.5906 78.3827C83.087 81.766 83.8596 83.1656 86.0316 93.8794C88.3892 103.795 91.5461 113.503 95.4714 122.909C97.7687 127.587 93.0906 131.075 91.2945 131.785C87.1176 133.497 84.4861 132.035 81.8547 128.547C77.4816 122.854 73.7095 116.723 70.5981 110.253C64.9103 99.8073 59.9283 88.9927 55.6863 77.8815C51.6212 66.5196 48.4172 54.868 46.1006 43.0253C44.2901 34.0753 43.1797 24.9979 42.7798 15.8754C42.5525 13.9936 41.6505 12.2581 40.2411 10.9908C38.8316 9.72344 37.0106 9.01016 35.1153 8.9834C31.189 8.9834 28.7034 11.4059 27.9515 15.6454C27.3209 21.5064 27.0212 27.3986 27.0536 33.2933C27.0556 51.5443 29.2292 69.7301 33.5281 87.4677C35.4077 95.1949 36.013 99.4346 46.7685 126.25C52.7415 141.141 65.3351 160.981 77.2602 176.164C91.3781 194.125 94.2183 197.926 119.927 227.916C125.649 234.62 127.425 246.336 130.369 251.244C132.228 254.418 136.802 261.686 152.633 261.686L208.143 261.54C210.002 261.54 226.167 261.54 229.446 261.54C237.194 261.728 239.199 263.023 234.374 249.949Z" fill="#E8E3DD" fill-opacity="0.9"/>
<path d="M383.449 68.5669C371.19 70.7533 359.548 75.5612 349.318 82.6619C339.089 89.7627 330.513 98.9888 324.178 109.709C322.529 112.466 321.192 113.719 314.55 111.944C313.819 111.735 279.047 105.198 255.844 105.073C232.642 104.948 198.788 111.735 198.057 111.944C191.416 113.719 190.079 112.466 188.429 109.709C182.083 98.9894 173.496 89.7669 163.255 82.6731C153.015 75.5794 141.363 70.782 129.096 68.6087C123.478 67.5436 118.507 68.4414 124.188 58.9389C129.15 51.1209 136.046 44.7164 144.208 40.3442C152.371 35.9721 161.524 33.7804 170.782 33.982C207.142 33.982 226.752 57.7907 256.304 58.3337C285.855 57.7907 305.466 33.982 341.93 33.982C351.188 33.7804 360.341 35.9721 368.504 40.3442C376.666 44.7164 383.562 51.1209 388.524 58.9389C394.037 68.4414 389.066 67.5436 383.449 68.5669Z" fill="#E8E3DD" fill-opacity="0.9"/>
<path d="M255.739 92.6044C258.519 92.6044 260.772 90.351 260.772 87.5713C260.772 84.7915 258.519 82.5381 255.739 82.5381C252.959 82.5381 250.706 84.7915 250.706 87.5713C250.706 90.351 252.959 92.6044 255.739 92.6044Z" fill="#FF6749"/>
<path d="M168.718 174.449C216.804 174.449 255.786 135.467 255.786 87.3811C255.786 39.295 216.804 0.313477 168.718 0.313477C120.632 0.313477 81.6504 39.295 81.6504 87.3811C81.6504 135.467 120.632 174.449 168.718 174.449Z" stroke="black" stroke-width="0.408429" stroke-miterlimit="10"/>
<path d="M168.718 140.971C198.314 140.971 222.307 116.978 222.307 87.3812C222.307 57.7844 198.314 33.7915 168.718 33.7915C139.121 33.7915 115.128 57.7844 115.128 87.3812C115.128 116.978 139.121 140.971 168.718 140.971Z" stroke="black" stroke-width="0.408429" stroke-miterlimit="10"/>
<path d="M342.686 174.449C390.772 174.449 429.753 135.467 429.753 87.3811C429.753 39.295 390.772 0.313477 342.686 0.313477C294.6 0.313477 255.618 39.295 255.618 87.3811C255.618 135.467 294.6 174.449 342.686 174.449Z" stroke="black" stroke-width="0.408429" stroke-miterlimit="10"/>
<path d="M342.686 140.971C372.283 140.971 396.276 116.978 396.276 87.3812C396.276 57.7844 372.283 33.7915 342.686 33.7915C313.089 33.7915 289.096 57.7844 289.096 87.3812C289.096 116.978 313.089 140.971 342.686 140.971Z" stroke="black" stroke-width="0.408429" stroke-miterlimit="10"/>
<path d="M255.618 261.517C303.705 261.517 342.686 222.535 342.686 174.449C342.686 126.363 303.705 87.3813 255.618 87.3813C207.532 87.3813 168.551 126.363 168.551 174.449C168.551 222.535 207.532 261.517 255.618 261.517Z" stroke="black" stroke-width="0.408429" stroke-miterlimit="10"/>
<path d="M255.619 228.037C285.215 228.037 309.208 204.044 309.208 174.448C309.208 144.851 285.215 120.858 255.619 120.858C226.022 120.858 202.029 144.851 202.029 174.448C202.029 204.044 226.022 228.037 255.619 228.037Z" stroke="black" stroke-width="0.408429" stroke-miterlimit="10"/>
</svg>
