<svg width="511" height="258" viewBox="0 0 511 258" fill="none" xmlns="http://www.w3.org/2000/svg">
<path d="M277.342 245.532C282.392 229.816 289.88 214.991 299.532 201.599C304.182 195.229 310.51 183.763 310.297 170.386C310.297 163.441 309.512 157.836 310.552 152.57C312.824 140.976 322.104 134.265 332.467 135.031C343.444 135.837 355.42 135.306 366.143 130.38C376.867 125.453 379.5 122.375 386.253 115.367C392.775 108.194 398.732 100.528 404.068 92.4342C408.678 85.5508 412.753 78.3243 416.256 70.8174C417.764 67.0381 421.989 66.7617 424.241 67.0381C425.416 67.1756 426.533 67.6208 427.48 68.3287C428.427 69.038 429.17 69.9842 429.633 71.072C431.162 74.5123 430.377 75.935 428.168 86.8496C425.772 96.9283 422.569 106.799 418.592 116.365C416.256 121.121 421.013 124.647 422.838 125.389C427.086 127.11 429.783 125.645 432.458 122.077C436.868 116.261 440.666 110.006 443.798 103.413C449.57 92.8195 454.628 81.8518 458.937 70.5846C463.075 59.0315 466.342 47.1857 468.705 35.1439C470.544 26.0441 471.666 16.8149 472.06 7.53951C472.301 5.6267 473.222 3.86364 474.659 2.57709C476.094 1.28918 477.946 0.563539 479.874 0.532227C483.866 0.532227 486.393 2.97464 487.158 7.30535C487.794 13.2575 488.092 19.2424 488.05 25.2272C488.062 43.8257 485.859 62.3588 481.487 80.4373C479.577 88.2723 478.94 92.6044 468.004 119.868C461.952 134.987 449.148 155.159 437.023 170.597C422.67 188.881 419.781 192.724 393.643 223.236C387.802 230.053 386.019 241.965 383.025 246.935C381.113 250.163 376.484 257.551 360.39 257.551L303.927 257.361C302.059 257.361 285.624 257.361 282.29 257.361C274.411 257.487 272.373 258.825 277.342 245.532Z" fill="#BDD4E9"/>
<path d="M233.854 245.534C228.804 229.818 221.316 214.992 211.664 201.601C207.015 195.229 200.687 183.763 200.899 170.386C200.899 163.443 201.685 157.836 200.645 152.57C198.372 140.976 189.093 134.266 178.751 135.031C167.773 135.838 155.798 135.307 145.053 130.38C134.307 125.455 131.718 122.375 124.965 115.368C118.429 108.207 112.473 100.538 107.15 92.4346C102.536 85.5512 98.4542 78.3247 94.9404 70.8192C93.4537 67.0385 89.2061 66.7621 86.9556 67.0385C85.7807 67.176 84.6629 67.6212 83.7167 68.3305C82.7692 69.0384 82.0258 69.9846 81.563 71.0738C80.0545 74.5127 80.8196 75.9354 83.0483 86.85C85.4376 96.9314 88.6397 106.803 92.6259 116.366C94.9608 121.123 90.2257 124.647 88.3783 125.391C84.132 127.11 81.4568 125.645 78.7598 122.078C74.3433 116.254 70.5231 110.001 67.3564 103.413C61.5894 92.7886 56.5317 81.7937 52.216 70.5006C48.0772 58.9475 44.8125 47.1017 42.4491 35.0599C40.6207 25.9587 39.4989 16.7296 39.0945 7.45553C38.8576 5.53999 37.936 3.77558 36.4997 2.48767C35.0634 1.19975 33.2091 0.475471 31.2799 0.448242C27.2882 0.448242 24.76 2.89066 23.9963 7.22136C23.3591 13.1735 23.0623 19.157 23.1045 25.1432C23.0923 43.7417 25.2937 62.2749 29.6653 80.3533C31.5767 88.1883 32.2139 92.5204 43.1502 119.784C49.2018 134.903 62.006 155.075 74.1309 170.513C88.4845 188.797 91.3938 192.64 117.511 223.152C123.351 229.969 125.136 241.881 128.129 246.851C130.041 250.079 134.67 257.467 150.764 257.467L207.227 257.34C209.117 257.34 225.552 257.34 228.886 257.34C236.763 257.489 238.781 258.826 233.854 245.534Z" fill="#BDD4E9"/>
<path d="M384.914 61.1558C372.442 63.364 360.595 68.242 350.182 75.4549C339.77 82.6677 331.039 92.0453 324.587 102.945C322.91 105.728 321.551 107.022 314.799 105.217C314.055 105.005 278.701 98.3582 255.11 98.2098C231.517 98.0614 197.098 105.005 196.354 105.217C189.602 107.022 188.243 105.728 186.566 102.945C180.117 92.0425 171.386 82.6637 160.974 75.4508C150.561 68.2379 138.711 63.3613 126.238 61.1558C120.527 60.0734 115.473 60.987 121.248 51.3249C126.291 43.3728 133.301 36.8584 141.602 32.4133C149.901 27.9669 159.209 25.7409 168.622 25.9506C205.592 25.9506 225.53 50.1568 255.683 50.7095C285.73 50.1568 305.668 25.9506 342.637 25.9506C352.06 25.7518 361.375 27.9941 369.675 32.4596C377.976 36.9237 384.981 43.4599 390.011 51.4311C395.702 60.9434 390.647 60.0734 384.914 61.1558Z" fill="#A3E776"/>
</svg>
