<svg width="511" height="374" viewBox="0 0 511 374" fill="none" xmlns="http://www.w3.org/2000/svg">
<path d="M277.183 246.192C282.246 230.454 289.745 215.607 299.407 202.19C304.064 195.81 310.403 184.347 310.191 170.926C310.191 163.972 309.404 158.357 310.445 153.083C312.72 141.492 322.015 134.772 332.373 135.537C343.368 136.346 355.363 135.813 366.124 130.858C376.886 125.902 379.481 122.862 386.244 115.822C392.796 108.662 398.763 100.988 404.087 92.8737C408.711 85.9726 412.799 78.7271 416.317 71.2025C417.805 67.4163 422.058 67.14 424.313 67.4381C425.488 67.5729 426.605 68.0167 427.554 68.7219C428.502 69.4272 429.248 70.3706 429.715 71.4571C431.225 74.9028 430.46 76.3487 428.227 87.2592C425.84 97.3583 422.633 107.245 418.634 116.821C416.295 121.585 421.037 125.137 422.889 125.86C427.142 127.583 429.821 126.116 432.522 122.564C436.96 116.755 440.801 110.512 443.985 103.933C449.77 93.2957 454.836 82.2831 459.149 70.9683C463.269 59.3961 466.51 47.5313 468.848 35.4717C470.68 26.357 471.803 17.1129 472.208 7.82383C472.449 5.90776 473.373 4.14266 474.811 2.85325C476.249 1.56384 478.103 0.836705 480.035 0.805664C484.033 0.805664 486.564 3.25147 487.329 7.59008C487.966 13.5582 488.265 19.5594 488.222 25.5619C488.216 44.1618 485.995 62.6963 481.608 80.772C479.694 88.641 479.056 92.9595 468.103 120.267C462.042 135.431 449.217 155.636 437.073 171.096C422.697 189.387 419.783 193.257 393.623 223.798C387.775 230.625 385.988 242.556 382.989 247.554C381.075 250.787 376.439 258.188 360.319 258.188L303.768 258.04C301.874 258.04 285.413 258.04 282.075 258.04C274.226 258.188 272.206 259.421 277.183 246.192Z" fill="#BDD4E9"/>
<path d="M233.583 246.192C228.52 230.454 221.021 215.607 211.359 202.19C206.701 195.81 200.363 184.347 200.576 170.926C200.576 163.972 201.363 158.357 200.32 153.083C198.045 141.492 188.751 134.772 178.373 135.537C167.376 136.346 155.382 135.813 144.642 130.858C133.902 125.902 131.265 122.862 124.501 115.822C117.962 108.651 111.996 100.978 106.657 92.8737C102.067 85.9713 98.0143 78.7257 94.5345 71.2025C93.0247 67.4163 88.792 67.14 86.5375 67.4381C85.3639 67.5729 84.2462 68.0167 83.2973 68.722C82.3484 69.4272 81.6037 70.3706 81.1354 71.4571C79.6051 74.9028 80.392 76.3487 82.603 87.2592C84.9719 97.3896 88.1576 107.312 92.1316 116.927C94.4705 121.691 89.7069 125.243 87.8785 125.966C83.624 127.69 80.9229 126.222 78.2436 122.67C73.8204 116.833 70.0152 110.555 66.8866 103.933C61.0924 93.2998 56.0265 82.2859 51.723 70.9683C47.5747 59.3989 44.3046 47.5327 41.9398 35.4718C40.0964 26.3583 38.9719 17.1142 38.5798 7.82384C38.3293 5.91185 37.3981 4.15411 35.9563 2.87287C34.5146 1.59163 32.6603 0.872786 30.7311 0.848145C26.7326 0.848145 24.2017 3.29396 23.4366 7.63324C22.7994 13.6017 22.5013 19.6016 22.5435 25.6041C22.5408 44.189 24.7463 62.7085 29.1151 80.772C31.0293 88.641 31.6678 92.9595 42.6205 120.267C48.6816 135.431 61.5062 155.636 73.6502 171.096C88.0269 189.387 90.9186 193.257 117.1 223.798C122.949 230.625 124.735 242.556 127.733 247.554C129.647 250.787 134.284 258.188 150.405 258.188L206.956 258.04C208.828 258.04 225.289 258.04 228.629 258.04C236.518 258.188 238.56 259.421 233.583 246.192Z" fill="#BDD4E9"/>
<path d="M384.925 61.632C372.434 63.8456 360.567 68.7318 350.139 75.9556C339.71 83.1793 330.966 92.5705 324.503 103.488C322.823 106.295 321.462 107.571 314.698 105.763C313.955 105.55 278.544 98.8929 254.915 98.7663C231.286 98.6383 196.812 105.55 196.067 105.763C189.304 107.571 187.942 106.295 186.262 103.488C179.798 92.5718 171.052 83.182 160.625 75.9583C150.197 68.7346 138.332 63.8484 125.841 61.632C120.098 60.5483 115.038 61.4618 120.843 51.7848C125.896 43.8245 132.919 37.3019 141.232 32.8486C149.543 28.3967 158.863 26.1654 168.291 26.3709C205.318 26.3709 225.289 50.6153 255.49 51.168C285.583 50.6153 305.553 26.3709 342.688 26.3709C352.125 26.1762 361.452 28.424 369.765 32.8949C378.078 37.3672 385.095 43.9102 390.135 51.8923C395.707 61.3556 390.645 60.4407 384.925 61.632Z" fill="#A3E776"/>
<path d="M176.288 323.651C176.288 329.138 172.396 334.54 163.528 334.54C161.01 334.683 158.503 334.108 156.297 332.886C154.092 331.662 152.278 329.839 151.065 327.628C150.978 327.465 150.928 327.284 150.918 327.098C150.909 326.913 150.939 326.729 151.008 326.557C151.076 326.385 151.182 326.23 151.317 326.103C151.452 325.975 151.613 325.88 151.788 325.82L153.001 325.395C153.298 325.289 153.625 325.294 153.919 325.413C154.213 325.53 154.454 325.751 154.595 326.034C155.52 327.552 156.839 328.791 158.413 329.618C159.985 330.446 161.754 330.831 163.528 330.733C169.078 330.733 172.482 327.99 172.482 323.651C172.482 319.695 169.675 318.461 163.826 317.27C158.424 316.187 151.788 314.166 151.788 306.872C151.811 305.411 152.13 303.969 152.725 302.635C153.32 301.301 154.179 300.101 155.25 299.107C156.322 298.114 157.582 297.347 158.957 296.854C160.333 296.36 161.793 296.15 163.251 296.237C165.526 296.149 167.775 296.738 169.714 297.931C171.653 299.124 173.194 300.866 174.14 302.937C174.214 303.111 174.249 303.301 174.245 303.49C174.24 303.679 174.195 303.866 174.112 304.037C174.03 304.207 173.911 304.358 173.766 304.481C173.621 304.603 173.451 304.693 173.269 304.744L172.035 305.106C171.732 305.174 171.413 305.133 171.137 304.989C170.859 304.844 170.643 304.608 170.526 304.319C169.861 302.977 168.82 301.857 167.526 301.102C166.233 300.345 164.748 299.985 163.251 300.066C162.304 299.984 161.351 300.097 160.448 300.397C159.547 300.698 158.715 301.179 158.006 301.813C157.298 302.446 156.725 303.218 156.326 304.081C155.926 304.942 155.706 305.878 155.681 306.828C155.681 310.955 159.062 312.316 164.761 313.549C169.867 314.571 176.288 316.165 176.288 323.651Z" fill="#8FA0B0"/>
<path d="M220.015 298.428V332.457C220.016 332.787 219.891 333.104 219.665 333.345C219.44 333.586 219.131 333.733 218.803 333.754H217.505C217.335 333.754 217.166 333.72 217.009 333.655C216.851 333.59 216.708 333.494 216.588 333.375C216.467 333.253 216.371 333.111 216.306 332.953C216.241 332.796 216.208 332.627 216.208 332.457V326.821C214.682 329.254 212.553 331.251 210.024 332.615C207.498 333.979 204.659 334.664 201.788 334.605C191.261 334.605 183.541 326.098 183.541 315.464C183.444 312.999 183.843 310.541 184.714 308.233C185.585 305.925 186.911 303.817 188.613 302.032C190.315 300.246 192.359 298.822 194.621 297.84C196.885 296.86 199.322 296.344 201.788 296.323C204.652 296.265 207.483 296.944 210.008 298.296C212.534 299.648 214.668 301.627 216.208 304.043V298.492C216.208 298.148 216.344 297.818 216.588 297.574C216.832 297.331 217.161 297.195 217.505 297.195H218.803C219.123 297.211 219.425 297.346 219.65 297.574C219.874 297.803 220.005 298.108 220.015 298.428ZM216.208 315.442C216.299 313.484 215.996 311.528 215.314 309.69C214.633 307.852 213.587 306.169 212.242 304.744C210.896 303.318 209.277 302.18 207.48 301.395C205.684 300.609 203.748 300.192 201.788 300.172C193.282 300.172 187.433 307.02 187.433 315.442C187.433 323.865 193.346 330.819 201.788 330.819C210.231 330.819 216.166 323.801 216.166 315.357L216.208 315.442Z" fill="#8FA0B0"/>
<path d="M262.806 312.04V332.393C262.806 332.725 262.678 333.046 262.449 333.287C262.219 333.53 261.905 333.673 261.573 333.689H260.297C260.127 333.689 259.958 333.656 259.8 333.591C259.642 333.526 259.499 333.43 259.379 333.309C259.258 333.189 259.163 333.046 259.097 332.889C259.032 332.732 258.999 332.563 258.999 332.393V312.04C258.999 307.084 256.617 300.086 248.173 300.086C246.589 300.058 245.013 300.346 243.54 300.936C242.069 301.524 240.728 302.401 239.599 303.514C238.47 304.627 237.575 305.954 236.965 307.419C236.356 308.882 236.046 310.454 236.051 312.04V332.393C236.051 332.722 235.927 333.04 235.701 333.281C235.477 333.522 235.168 333.669 234.84 333.689H233.542C233.371 333.689 233.203 333.656 233.045 333.591C232.887 333.526 232.744 333.43 232.624 333.309C232.503 333.189 232.408 333.046 232.343 332.889C232.277 332.732 232.245 332.563 232.245 332.393V298.364C232.245 298.194 232.277 298.025 232.343 297.867C232.408 297.711 232.503 297.568 232.624 297.446C232.744 297.327 232.887 297.23 233.045 297.166C233.203 297.101 233.371 297.067 233.542 297.067H234.902C235.234 297.083 235.545 297.227 235.772 297.47C235.998 297.712 236.121 298.033 236.115 298.364V302.829C237.365 300.748 239.146 299.035 241.276 297.868C243.407 296.702 245.81 296.124 248.237 296.195C258.701 296.258 262.806 304.914 262.806 312.04Z" fill="#8FA0B0"/>
<path d="M290.56 286.369C285.094 286.667 282.563 289.56 282.563 296.472V297.131H290.496C290.831 297.141 291.147 297.284 291.379 297.527C291.61 297.769 291.735 298.093 291.73 298.428V299.832C291.735 300.167 291.61 300.491 291.379 300.733C291.147 300.975 290.831 301.118 290.496 301.129H282.563V332.499C282.563 332.842 282.427 333.173 282.183 333.415C281.94 333.659 281.61 333.797 281.266 333.797H279.968C279.636 333.78 279.322 333.636 279.092 333.394C278.863 333.153 278.735 332.831 278.735 332.499V301.023H273.483C273.138 301.023 272.807 300.885 272.565 300.643C272.321 300.399 272.185 300.069 272.185 299.725V298.428C272.185 298.084 272.321 297.754 272.565 297.51C272.807 297.267 273.138 297.131 273.483 297.131H278.735V296.472C278.735 287.454 282.861 282.987 290.432 282.478C290.777 282.478 291.106 282.614 291.35 282.857C291.592 283.1 291.73 283.431 291.73 283.774V285.071C291.727 285.394 291.606 285.703 291.391 285.942C291.174 286.181 290.879 286.333 290.56 286.369Z" fill="#8FA0B0"/>
<path d="M315.082 330.159C315.435 330.154 315.778 330.286 316.035 330.528C316.294 330.77 316.448 331.103 316.464 331.456V332.754C316.464 332.915 316.431 333.074 316.37 333.222C316.308 333.371 316.216 333.505 316.102 333.618C315.986 333.731 315.85 333.82 315.7 333.88C315.552 333.94 315.391 333.968 315.231 333.966C309.616 334.328 303.916 333.03 303.916 322.715V301.022H298.217C297.872 301.022 297.542 300.886 297.299 300.642C297.056 300.4 296.919 300.069 296.919 299.724V298.428C296.919 298.084 297.056 297.753 297.299 297.511C297.542 297.267 297.872 297.131 298.217 297.131H303.916V290.75C303.927 290.415 304.07 290.099 304.312 289.868C304.554 289.637 304.878 289.511 305.213 289.516H306.511C306.846 289.511 307.17 289.637 307.412 289.868C307.654 290.099 307.797 290.415 307.808 290.75V297.131H315.018C315.361 297.131 315.692 297.267 315.934 297.511C316.178 297.753 316.316 298.084 316.316 298.428V299.832C316.316 300.002 316.282 300.171 316.216 300.327C316.151 300.485 316.056 300.628 315.934 300.748C315.815 300.869 315.672 300.965 315.514 301.03C315.357 301.095 315.188 301.129 315.018 301.129H307.808V322.822C307.808 327.841 309.106 330.371 315.082 330.159Z" fill="#8FA0B0"/>
<path d="M360.148 315.356C360.148 315.871 359.944 316.366 359.582 316.732C359.22 317.099 358.728 317.307 358.212 317.312H328.63C328.995 321.002 330.722 324.422 333.477 326.904C336.229 329.385 339.81 330.751 343.517 330.732C345.573 330.786 347.616 330.408 349.517 329.625C351.419 328.841 353.134 327.667 354.554 326.181C354.757 325.976 355.02 325.844 355.306 325.806C355.59 325.767 355.88 325.824 356.128 325.968L357.213 326.691C357.379 326.782 357.522 326.91 357.631 327.066C357.739 327.221 357.811 327.399 357.839 327.586C357.868 327.774 357.854 327.964 357.797 328.145C357.74 328.325 357.642 328.49 357.511 328.627C354.884 331.384 351.49 333.291 347.768 334.099C344.045 334.907 340.167 334.579 336.632 333.159C333.098 331.739 330.072 329.291 327.944 326.133C325.814 322.974 324.683 319.25 324.695 315.44C324.695 304.978 332.33 296.3 342.73 296.3C352.364 296.258 359.936 303.829 360.148 315.356ZM328.63 313.484H356.128C355.277 305.488 349.748 300.086 342.73 300.086C339.127 300.142 335.677 301.551 333.064 304.033C330.453 306.515 328.87 309.888 328.63 313.484Z" fill="#8FA0B0"/>
<path d="M198.897 348.746H202.852C203.011 348.749 203.169 348.783 203.315 348.847C203.46 348.911 203.593 349.002 203.703 349.116C203.814 349.231 203.9 349.367 203.959 349.514C204.017 349.662 204.046 349.82 204.043 349.98V371.546C204.046 371.705 204.017 371.863 203.959 372.012C203.9 372.159 203.814 372.295 203.703 372.409C203.593 372.523 203.46 372.615 203.315 372.679C203.169 372.743 203.011 372.777 202.852 372.779H199.386C199.062 372.774 198.754 372.64 198.527 372.41C198.301 372.179 198.173 371.869 198.173 371.546V358.509L192.368 368.122C192.257 368.304 192.101 368.455 191.914 368.56C191.728 368.664 191.518 368.718 191.304 368.717H190.517C190.305 368.721 190.097 368.668 189.914 368.563C189.73 368.458 189.578 368.306 189.475 368.122L183.562 358.423V371.46C183.566 371.623 183.536 371.786 183.475 371.935C183.413 372.086 183.322 372.224 183.208 372.34C183.092 372.454 182.955 372.545 182.805 372.606C182.654 372.666 182.492 372.696 182.328 372.694H178.904C178.578 372.694 178.265 372.564 178.033 372.333C177.802 372.101 177.671 371.787 177.671 371.46V349.895C177.671 349.568 177.802 349.254 178.033 349.022C178.265 348.791 178.578 348.662 178.904 348.662H182.818C183.136 348.662 183.447 348.743 183.724 348.9C183.999 349.056 184.229 349.282 184.392 349.555L190.772 360.189L197.301 349.555C197.477 349.296 197.715 349.086 197.994 348.945C198.273 348.803 198.584 348.735 198.897 348.746Z" fill="#8FA0B0"/>
<path d="M222.738 367.143C223.065 367.143 223.378 367.272 223.609 367.504C223.841 367.735 223.971 368.05 223.971 368.377V371.46C223.971 371.787 223.841 372.101 223.609 372.333C223.378 372.564 223.065 372.694 222.738 372.694H210.084C209.755 372.694 209.442 372.564 209.211 372.333C208.979 372.101 208.85 371.787 208.85 371.46V349.895C208.85 349.568 208.979 349.254 209.211 349.022C209.442 348.791 209.755 348.662 210.084 348.662H222.418C222.58 348.662 222.741 348.693 222.891 348.756C223.04 348.817 223.176 348.908 223.291 349.022C223.405 349.137 223.496 349.273 223.558 349.423C223.62 349.572 223.652 349.733 223.652 349.895V353.001C223.641 353.319 223.506 353.623 223.276 353.845C223.046 354.067 222.738 354.192 222.418 354.19H214.719V357.934H221.313C221.476 357.932 221.639 357.962 221.79 358.021C221.943 358.083 222.082 358.173 222.199 358.288C222.316 358.403 222.409 358.54 222.471 358.691C222.535 358.841 222.568 359.004 222.568 359.168V361.953C222.568 362.118 222.535 362.28 222.471 362.431C222.409 362.582 222.316 362.718 222.199 362.834C222.082 362.948 221.943 363.038 221.79 363.1C221.639 363.161 221.476 363.189 221.313 363.187H214.719V367.143H222.738Z" fill="#8FA0B0"/>
<path d="M244.176 349.895V353.001C244.173 353.16 244.139 353.317 244.075 353.462C244.011 353.609 243.92 353.741 243.805 353.852C243.691 353.962 243.555 354.049 243.408 354.108C243.259 354.166 243.101 354.195 242.942 354.192H238.56V371.46C238.56 371.788 238.43 372.102 238.199 372.333C237.967 372.564 237.654 372.694 237.326 372.694H233.882C233.562 372.683 233.258 372.548 233.036 372.318C232.814 372.088 232.691 371.78 232.691 371.46V354.192H228.288C227.968 354.192 227.66 354.068 227.43 353.845C227.2 353.623 227.065 353.321 227.054 353.001V349.895C227.054 349.569 227.185 349.254 227.416 349.023C227.646 348.791 227.961 348.662 228.288 348.662H242.942C243.104 348.659 243.266 348.689 243.417 348.75C243.568 348.81 243.704 348.901 243.82 349.017C243.935 349.132 244.026 349.269 244.087 349.42C244.148 349.571 244.178 349.732 244.176 349.895Z" fill="#8FA0B0"/>
<path d="M263.889 367.143C264.051 367.143 264.212 367.174 264.362 367.237C264.512 367.3 264.648 367.389 264.762 367.504C264.877 367.62 264.968 367.754 265.029 367.904C265.092 368.054 265.123 368.214 265.123 368.377V371.46C265.123 371.622 265.092 371.783 265.029 371.933C264.968 372.082 264.877 372.218 264.762 372.333C264.648 372.447 264.512 372.538 264.362 372.6C264.212 372.662 264.051 372.694 263.889 372.694H248.173C248.01 372.696 247.848 372.666 247.697 372.606C247.547 372.545 247.409 372.454 247.294 372.34C247.179 372.224 247.088 372.086 247.027 371.935C246.967 371.786 246.936 371.623 246.94 371.46V368.483C246.923 368.024 247.066 367.573 247.343 367.207L256.999 354.19H248.492C248.174 354.19 247.868 354.066 247.642 353.843C247.415 353.621 247.286 353.318 247.28 353.001V349.895C247.28 349.571 247.407 349.261 247.633 349.031C247.86 348.799 248.168 348.667 248.492 348.662H263.379C263.706 348.662 264.02 348.791 264.252 349.022C264.483 349.254 264.612 349.568 264.612 349.895V353.001C264.614 353.451 264.472 353.89 264.208 354.254L254.553 367.249L263.889 367.143Z" fill="#8FA0B0"/>
<path d="M280.777 358.786H289.709C289.871 358.789 290.03 358.823 290.179 358.888C290.329 358.952 290.462 359.045 290.575 359.162C290.688 359.279 290.776 359.416 290.835 359.566C290.895 359.717 290.924 359.878 290.921 360.04V371.631C290.921 371.913 290.809 372.184 290.609 372.383C290.41 372.583 290.139 372.694 289.858 372.694H288.922C288.688 372.688 288.462 372.609 288.276 372.467C288.089 372.327 287.95 372.131 287.879 371.907L287.306 369.781C286.372 370.91 285.188 371.804 283.848 372.395C282.507 372.986 281.048 373.255 279.586 373.183C277.543 373.179 275.533 372.673 273.733 371.709C271.932 370.745 270.396 369.353 269.259 367.657C268.122 365.959 267.42 364.01 267.214 361.977C267.009 359.946 267.305 357.894 268.079 356.003C268.851 354.114 270.077 352.442 271.648 351.136C273.218 349.831 275.086 348.931 277.086 348.517C279.086 348.103 281.157 348.186 283.117 348.76C285.078 349.335 286.866 350.382 288.326 351.81C288.451 351.941 288.545 352.097 288.604 352.267C288.662 352.439 288.683 352.62 288.665 352.8C288.647 352.98 288.59 353.154 288.499 353.309C288.408 353.466 288.284 353.599 288.135 353.702L285.242 355.638C285.009 355.781 284.736 355.844 284.462 355.818C284.19 355.791 283.934 355.675 283.732 355.489C283.161 354.966 282.489 354.56 281.76 354.297C281.029 354.035 280.254 353.919 279.479 353.958C277.742 354.055 276.11 354.813 274.914 356.077C273.719 357.34 273.053 359.013 273.053 360.753C273.053 362.492 273.719 364.165 274.914 365.428C276.11 366.692 277.742 367.45 279.479 367.548C280.77 367.637 282.052 367.288 283.121 366.558C284.19 365.83 284.982 364.763 285.37 363.528H280.671C280.351 363.517 280.047 363.382 279.825 363.152C279.603 362.922 279.479 362.614 279.479 362.294V360.168C279.458 359.988 279.474 359.806 279.531 359.634C279.587 359.463 279.679 359.305 279.803 359.173C279.927 359.041 280.078 358.937 280.247 358.87C280.415 358.804 280.596 358.775 280.777 358.786Z" fill="#8FA0B0"/>
<path d="M309.339 367.143C309.503 367.14 309.666 367.17 309.817 367.23C309.97 367.291 310.109 367.381 310.226 367.497C310.343 367.611 310.435 367.749 310.498 367.9C310.562 368.051 310.595 368.213 310.595 368.377V371.46C310.595 371.625 310.562 371.787 310.498 371.938C310.435 372.089 310.343 372.225 310.226 372.34C310.109 372.455 309.97 372.545 309.817 372.607C309.666 372.666 309.503 372.696 309.339 372.694H296.579C296.252 372.694 295.937 372.564 295.706 372.333C295.474 372.101 295.345 371.788 295.345 371.46V349.895C295.367 349.583 295.506 349.291 295.735 349.077C295.965 348.865 296.266 348.746 296.579 348.746H308.913C309.075 348.746 309.236 348.779 309.386 348.84C309.535 348.903 309.672 348.994 309.786 349.108C309.9 349.223 309.991 349.359 310.054 349.508C310.115 349.658 310.148 349.818 310.148 349.98V353.001C310.136 353.319 310.001 353.623 309.771 353.845C309.541 354.067 309.233 354.192 308.913 354.19H301.214V357.934H307.808C307.971 357.932 308.132 357.962 308.283 358.023C308.434 358.083 308.572 358.174 308.686 358.29C308.802 358.404 308.893 358.542 308.954 358.693C309.014 358.844 309.044 359.004 309.041 359.168V361.953C309.044 362.117 309.014 362.279 308.954 362.43C308.893 362.58 308.802 362.717 308.686 362.833C308.572 362.947 308.434 363.038 308.283 363.1C308.132 363.161 307.971 363.191 307.808 363.187H301.214V367.143H309.339Z" fill="#8FA0B0"/>
<path d="M332.925 372.694H329.161C328.875 372.691 328.595 372.611 328.351 372.461C328.109 372.311 327.91 372.097 327.778 371.843L324.184 364.634H323.845H320.463V371.418C320.466 371.577 320.437 371.735 320.378 371.884C320.32 372.032 320.233 372.167 320.122 372.281C320.012 372.395 319.88 372.488 319.733 372.551C319.587 372.615 319.431 372.649 319.272 372.651H315.826C315.499 372.651 315.185 372.522 314.953 372.291C314.723 372.059 314.592 371.745 314.592 371.418V349.895C314.592 349.568 314.723 349.254 314.953 349.022C315.185 348.791 315.499 348.662 315.826 348.662H323.845C329.948 348.662 333.074 352.128 333.074 356.977C333.105 358.281 332.774 359.568 332.117 360.694C331.46 361.821 330.503 362.743 329.352 363.357L333.734 371.354C333.806 371.493 333.843 371.649 333.838 371.806C333.833 371.964 333.788 372.118 333.707 372.251C333.625 372.386 333.511 372.498 333.375 372.575C333.237 372.653 333.083 372.694 332.925 372.694ZM320.463 359.721H323.845C325.545 359.721 327.141 358.998 327.141 356.977C327.141 354.957 325.801 354.19 323.845 354.19H320.463V359.721Z" fill="#8FA0B0"/>
</svg>
